{
  "accessors": [
    {
      "bufferView": 3,
      "componentType": 5126,
      "count": 25691,
      "max": [
        54.79819869995117,
        15.362100601196289,
        6.060385704040527
      ],
      "min": [
        -55.14109802246094,
        -5.930200099945068,
        -6.060375690460205
      ],
      "type": "VEC3"
    },
    {
      "bufferView": 3,
      "byteOffset": 308292,
      "componentType": 5126,
      "count": 25691,
      "max": [
        1.0,
        1.0,
        1.0
      ],
      "min": [
        -1.0,
        -1.0,
        -1.0
      ],
      "type": "VEC3"
    },
    {
      "bufferView": 4,
      "componentType": 5126,
      "count": 25691,
      "max": [
        1.0,
        1.0,
        1.0,
        1.0
      ],
      "min": [
        -1.0,
        -1.0,
        -1.0,
        -1.0
      ],
      "type": "VEC4"
    },
    {
      "bufferView": 2,
      "componentType": 5126,
      "count": 25691,
      "max": [
        0.9975175857543945,
        1.0
      ],
      "min": [
        -0.008508551865816116,
        0.0031630992889404297
      ],
      "type": "VEC2"
    },
    {
      "bufferView": 1,
      "componentType": 5125,
      "count": 80196,
      "type": "SCALAR"
    },
    {
      "bufferView": 5,
      "componentType": 5126,
      "count": 34,
      "max": [
        100.0,
        0.0,
        15.643445014953613,
        0.0,
        0.0,
        1.0,
        100.0,
        0.0,
        0.0,
        0.0,
        1.0,
        0.0,
        5300.4306640625,
        355.7011413574219,
        193.46319580078125,
        1.0
      ],
      "min": [
        1.0,
        0.0,
        0.0,
        0.0,
        -15.643445014953613,
        0.0,
        0.0,
        0.0,
        0.0,
        -100.00000762939453,
        0.0,
        0.0,
        -4335.86279296875,
        -355.7013854980469,
        -1515.9000244140625,
        1.0
      ],
      "type": "MAT4"
    },
    {
      "bufferView": 0,
      "componentType": 5123,
      "count": 25691,
      "type": "VEC4"
    },
    {
      "bufferView": 4,
      "byteOffset": 411056,
      "componentType": 5126,
      "count": 25691,
      "max": [
        1.0,
        0.0,
        0.0,
        0.0
      ],
      "min": [
        1.0,
        0.0,
        0.0,
        0.0
      ],
      "type": "VEC4"
    },
    {
      "bufferView": 6,
      "componentType": 5126,
      "count": 61,
      "max": [
        2.0
      ],
      "min": [
        0.0
      ],
      "type": "SCALAR"
    },
    {
      "bufferView": 8,
      "componentType": 5126,
      "count": 61,
      "max": [
        0.0,
        0.0,
        0.342020183801651,
        1.0
      ],
      "min": [
        0.0,
        0.0,
        -0.342020183801651,
        0.9396926164627075
      ],
      "type": "VEC4"
    },
    {
      "bufferView": 6,
      "byteOffset": 244,
      "componentType": 5126,
      "count": 61,
      "max": [
        2.0
      ],
      "min": [
        0.0
      ],
      "type": "SCALAR"
    },
    {
      "bufferView": 8,
      "byteOffset": 976,
      "componentType": 5126,
      "count": 61,
      "max": [
        0.0,
        0.0,
        0.342020183801651,
        1.0
      ],
      "min": [
        0.0,
        0.0,
        -0.342020183801651,
        0.9396926164627075
      ],
      "type": "VEC4"
    },
    {
      "bufferView": 6,
      "byteOffset": 488,
      "componentType": 5126,
      "count": 61,
      "max": [
        2.0
      ],
      "min": [
        0.0
      ],
      "type": "SCALAR"
    },
    {
      "bufferView": 8,
      "byteOffset": 1952,
      "componentType": 5126,
      "count": 61,
      "max": [
        0.0,
        0.0,
        0.0,
        1.0
      ],
      "min": [
        0.0,
        -0.42261838912963867,
        0.0,
        0.9063077569007874
      ],
      "type": "VEC4"
    },
    {
      "bufferView": 6,
      "byteOffset": 732,
      "componentType": 5126,
      "count": 61,
      "max": [
        2.0
      ],
      "min": [
        0.0
      ],
      "type": "SCALAR"
    },
    {
      "bufferView": 8,
      "byteOffset": 2928,
      "componentType": 5126,
      "count": 61,
      "max": [
        0.0,
        0.42261838912963867,
        0.0,
        1.0
      ],
      "min": [
        0.0,
        0.0,
        0.0,
        0.9063077569007874
      ],
      "type": "VEC4"
    },
    {
      "bufferView": 6,
      "byteOffset": 976,
      "componentType": 5126,
      "count": 61,
      "max": [
        2.0
      ],
      "min": [
        0.0
      ],
      "type": "SCALAR"
    },
    {
      "bufferView": 8,
      "byteOffset": 3904,
      "componentType": 5126,
      "count": 61,
      "max": [
        0.0,
        0.08715572953224182,
        0.0,
        1.0
      ],
      "min": [
        0.0,
        0.0,
        0.0,
        0.9961946606636047
      ],
      "type": "VEC4"
    },
    {
      "bufferView": 6,
      "byteOffset": 1220,
      "componentType": 5126,
      "count": 61,
      "max": [
        2.0
      ],
      "min": [
        0.0
      ],
      "type": "SCALAR"
    },
    {
      "bufferView": 8,
      "byteOffset": 4880,
      "componentType": 5126,
      "count": 61,
      "max": [
        0.0,
        0.0,
        0.0,
        1.0
      ],
      "min": [
        0.0,
        -0.08715572953224182,
        0.0,
        0.9961946606636047
      ],
      "type": "VEC4"
    },
    {
      "bufferView": 6,
      "byteOffset": 1464,
      "componentType": 5126,
      "count": 61,
      "max": [
        2.0
      ],
      "min": [
        0.0
      ],
      "type": "SCALAR"
    },
    {
      "bufferView": 8,
      "byteOffset": 5856,
      "componentType": 5126,
      "count": 61,
      "max": [
        1.0,
        0.0,
        0.0,
        1.0
      ],
      "min": [
        -0.9987451434135437,
        0.0,
        0.0,
        4.371138828673793e-08
      ],
      "type": "VEC4"
    },
    {
      "bufferView": 6,
      "byteOffset": 1708,
      "componentType": 5126,
      "count": 61,
      "max": [
        2.0
      ],
      "min": [
        0.0
      ],
      "type": "SCALAR"
    },
    {
      "bufferView": 8,
      "byteOffset": 6832,
      "componentType": 5126,
      "count": 61,
      "max": [
        0.0,
        0.0,
        1.0,
        1.0
      ],
      "min": [
        0.0,
        0.0,
        -0.9987451434135437,
        4.371138828673793e-08
      ],
      "type": "VEC4"
    },
    {
      "bufferView": 6,
      "byteOffset": 1952,
      "componentType": 5126,
      "count": 1,
      "max": [
        0.0
      ],
      "min": [
        0.0
      ],
      "type": "SCALAR"
    },
    {
      "bufferView": 7,
      "componentType": 5126,
      "count": 1,
      "max": [
        -0.036865234375,
        0.0031280517578125,
        187.6396484375
      ],
      "min": [
        -0.036865234375,
        0.0031280517578125,
        187.6396484375
      ],
      "type": "VEC3"
    },
    {
      "bufferView": 6,
      "byteOffset": 1956,
      "componentType": 5126,
      "count": 1,
      "max": [
        0.0
      ],
      "min": [
        0.0
      ],
      "type": "SCALAR"
    },
    {
      "bufferView": 7,
      "byteOffset": 12,
      "componentType": 5126,
      "count": 1,
      "max": [
        -0.036865234375,
        -0.0008697509765625,
        187.6396484375
      ],
      "min": [
        -0.036865234375,
        -0.0008697509765625,
        187.6396484375
      ],
      "type": "VEC3"
    },
    {
      "bufferView": 6,
      "byteOffset": 1960,
      "componentType": 5126,
      "count": 1,
      "max": [
        0.0
      ],
      "min": [
        0.0
      ],
      "type": "SCALAR"
    },
    {
      "bufferView": 7,
      "byteOffset": 24,
      "componentType": 5126,
      "count": 1,
      "max": [
        -0.036865234375,
        0.0,
        187.6396484375
      ],
      "min": [
        -0.036865234375,
        0.0,
        187.6396484375
      ],
      "type": "VEC3"
    },
    {
      "bufferView": 6,
      "byteOffset": 1964,
      "componentType": 5126,
      "count": 61,
      "max": [
        2.0
      ],
      "min": [
        0.0
      ],
      "type": "SCALAR"
    },
    {
      "bufferView": 8,
      "byteOffset": 7808,
      "componentType": 5126,
      "count": 61,
      "max": [
        0.0,
        0.07845909148454666,
        0.05043253302574158,
        0.9969173073768616
      ],
      "min": [
        -0.640806257724762,
        0.060103144496679306,
        0.0,
        0.7636829018592834
      ],
      "type": "VEC4"
    },
    {
      "bufferView": 6,
      "byteOffset": 2208,
      "componentType": 5126,
      "count": 61,
      "max": [
        2.0
      ],
      "min": [
        0.0
      ],
      "type": "SCALAR"
    },
    {
      "bufferView": 8,
      "byteOffset": 8784,
      "componentType": 5126,
      "count": 61,
      "max": [
        0.5,
        0.0,
        0.0,
        1.0
      ],
      "min": [
        0.0,
        0.0,
        0.0,
        0.8660253882408142
      ],
      "type": "VEC4"
    },
    {
      "bufferView": 6,
      "byteOffset": 2452,
      "componentType": 5126,
      "count": 61,
      "max": [
        2.0
      ],
      "min": [
        0.0
      ],
      "type": "SCALAR"
    },
    {
      "bufferView": 8,
      "byteOffset": 9760,
      "componentType": 5126,
      "count": 61,
      "max": [
        0.0,
        0.0,
        0.0,
        1.0
      ],
      "min": [
        -0.5,
        0.0,
        0.0,
        0.8660253882408142
      ],
      "type": "VEC4"
    },
    {
      "bufferView": 6,
      "byteOffset": 2696,
      "componentType": 5126,
      "count": 61,
      "max": [
        2.0
      ],
      "min": [
        0.0
      ],
      "type": "SCALAR"
    },
    {
      "bufferView": 8,
      "byteOffset": 10736,
      "componentType": 5126,
      "count": 61,
      "max": [
        0.6427878141403198,
        0.0,
        0.0,
        1.0
      ],
      "min": [
        0.0,
        0.0,
        0.0,
        0.7660443186759949
      ],
      "type": "VEC4"
    },
    {
      "bufferView": 6,
      "byteOffset": 2940,
      "componentType": 5126,
      "count": 61,
      "max": [
        2.0
      ],
      "min": [
        0.0
      ],
      "type": "SCALAR"
    },
    {
      "bufferView": 8,
      "byteOffset": 11712,
      "componentType": 5126,
      "count": 61,
      "max": [
        0.0,
        0.0,
        0.0,
        1.0
      ],
      "min": [
        -0.6427878141403198,
        0.0,
        0.0,
        0.7660443186759949
      ],
      "type": "VEC4"
    },
    {
      "bufferView": 6,
      "byteOffset": 3184,
      "componentType": 5126,
      "count": 61,
      "max": [
        2.0
      ],
      "min": [
        0.0
      ],
      "type": "SCALAR"
    },
    {
      "bufferView": 8,
      "byteOffset": 12688,
      "componentType": 5126,
      "count": 61,
      "max": [
        0.0,
        0.0,
        0.0,
        1.0
      ],
      "min": [
        -0.6427878141403198,
        0.0,
        0.0,
        0.7660443186759949
      ],
      "type": "VEC4"
    },
    {
      "bufferView": 6,
      "byteOffset": 3428,
      "componentType": 5126,
      "count": 61,
      "max": [
        2.0
      ],
      "min": [
        0.0
      ],
      "type": "SCALAR"
    },
    {
      "bufferView": 8,
      "byteOffset": 13664,
      "componentType": 5126,
      "count": 61,
      "max": [
        0.0,
        0.04824091121554375,
        0.031008660793304443,
        0.9988357424736023
      ],
      "min": [
        -0.6420392990112305,
        0.03695468232035637,
        0.0,
        0.7651525139808655
      ],
      "type": "VEC4"
    },
    {
      "bufferView": 6,
      "byteOffset": 3672,
      "componentType": 5126,
      "count": 61,
      "max": [
        2.0
      ],
      "min": [
        0.0
      ],
      "type": "SCALAR"
    },
    {
      "bufferView": 8,
      "byteOffset": 14640,
      "componentType": 5126,
      "count": 61,
      "max": [
        0.5,
        0.0,
        0.0,
        1.0
      ],
      "min": [
        0.0,
        0.0,
        0.0,
        0.8660253882408142
      ],
      "type": "VEC4"
    },
    {
      "bufferView": 6,
      "byteOffset": 3916,
      "componentType": 5126,
      "count": 61,
      "max": [
        2.0
      ],
      "min": [
        0.0
      ],
      "type": "SCALAR"
    },
    {
      "bufferView": 8,
      "byteOffset": 15616,
      "componentType": 5126,
      "count": 61,
      "max": [
        0.6420392990112305,
        0.04824092984199524,
        0.0,
        0.9988357424736023
      ],
      "min": [
        0.0,
        0.03695469722151756,
        -0.031008673831820488,
        0.7651525139808655
      ],
      "type": "VEC4"
    },
    {
      "bufferView": 6,
      "byteOffset": 4160,
      "componentType": 5126,
      "count": 61,
      "max": [
        2.0
      ],
      "min": [
        0.0
      ],
      "type": "SCALAR"
    },
    {
      "bufferView": 8,
      "byteOffset": 16592,
      "componentType": 5126,
      "count": 61,
      "max": [
        0.6427878141403198,
        0.0,
        0.0,
        1.0
      ],
      "min": [
        0.0,
        0.0,
        0.0,
        0.7660443186759949
      ],
      "type": "VEC4"
    },
    {
      "bufferView": 6,
      "byteOffset": 4404,
      "componentType": 5126,
      "count": 61,
      "max": [
        2.0
      ],
      "min": [
        0.0
      ],
      "type": "SCALAR"
    },
    {
      "bufferView": 8,
      "byteOffset": 17568,
      "componentType": 5126,
      "count": 61,
      "max": [
        0.640806257724762,
        0.07845909148454666,
        0.0,
        0.9969173073768616
      ],
      "min": [
        0.0,
        0.060103144496679306,
        -0.05043253302574158,
        0.7636829018592834
      ],
      "type": "VEC4"
    },
    {
      "bufferView": 6,
      "byteOffset": 4648,
      "componentType": 5126,
      "count": 61,
      "max": [
        2.0
      ],
      "min": [
        0.0
      ],
      "type": "SCALAR"
    },
    {
      "bufferView": 8,
      "byteOffset": 18544,
      "componentType": 5126,
      "count": 61,
      "max": [
        0.0,
        0.0,
        0.0,
        1.0
      ],
      "min": [
        -0.5,
        0.0,
        0.0,
        0.8660253882408142
      ],
      "type": "VEC4"
    }
  ],
  "animations": [
    {
      "channels": [
        {
          "sampler": 0,
          "target": {
            "node": 12,
            "path": "rotation"
          }
        },
        {
          "sampler": 1,
          "target": {
            "node": 13,
            "path": "rotation"
          }
        },
        {
          "sampler": 2,
          "target": {
            "node": 14,
            "path": "rotation"
          }
        },
        {
          "sampler": 3,
          "target": {
            "node": 15,
            "path": "rotation"
          }
        },
        {
          "sampler": 4,
          "target": {
            "node": 16,
            "path": "rotation"
          }
        },
        {
          "sampler": 5,
          "target": {
            "node": 17,
            "path": "rotation"
          }
        },
        {
          "sampler": 6,
          "target": {
            "node": 18,
            "path": "rotation"
          }
        },
        {
          "sampler": 7,
          "target": {
            "node": 19,
            "path": "rotation"
          }
        },
        {
          "sampler": 8,
          "target": {
            "node": 21,
            "path": "translation"
          }
        },
        {
          "sampler": 9,
          "target": {
            "node": 25,
            "path": "translation"
          }
        },
        {
          "sampler": 10,
          "target": {
            "node": 27,
            "path": "translation"
          }
        },
        {
          "sampler": 11,
          "target": {
            "node": 29,
            "path": "rotation"
          }
        },
        {
          "sampler": 12,
          "target": {
            "node": 30,
            "path": "rotation"
          }
        },
        {
          "sampler": 13,
          "target": {
            "node": 31,
            "path": "rotation"
          }
        },
        {
          "sampler": 14,
          "target": {
            "node": 32,
            "path": "rotation"
          }
        },
        {
          "sampler": 15,
          "target": {
            "node": 33,
            "path": "rotation"
          }
        },
        {
          "sampler": 16,
          "target": {
            "node": 34,
            "path": "rotation"
          }
        },
        {
          "sampler": 17,
          "target": {
            "node": 35,
            "path": "rotation"
          }
        },
        {
          "sampler": 18,
          "target": {
            "node": 36,
            "path": "rotation"
          }
        },
        {
          "sampler": 19,
          "target": {
            "node": 37,
            "path": "rotation"
          }
        },
        {
          "sampler": 20,
          "target": {
            "node": 38,
            "path": "rotation"
          }
        },
        {
          "sampler": 21,
          "target": {
            "node": 39,
            "path": "rotation"
          }
        },
        {
          "sampler": 22,
          "target": {
            "node": 40,
            "path": "rotation"
          }
        }
      ],
      "name": "Priview_Animation",
      "samplers": [
        {
          "input": 8,
          "interpolation": "LINEAR",
          "output": 9
        },
        {
          "input": 10,
          "interpolation": "LINEAR",
          "output": 11
        },
        {
          "input": 12,
          "interpolation": "LINEAR",
          "output": 13
        },
        {
          "input": 14,
          "interpolation": "LINEAR",
          "output": 15
        },
        {
          "input": 16,
          "interpolation": "LINEAR",
          "output": 17
        },
        {
          "input": 18,
          "interpolation": "LINEAR",
          "output": 19
        },
        {
          "input": 20,
          "interpolation": "LINEAR",
          "output": 21
        },
        {
          "input": 22,
          "interpolation": "LINEAR",
          "output": 23
        },
        {
          "input": 24,
          "interpolation": "LINEAR",
          "output": 25
        },
        {
          "input": 26,
          "interpolation": "LINEAR",
          "output": 27
        },
        {
          "input": 28,
          "interpolation": "LINEAR",
          "output": 29
        },
        {
          "input": 30,
          "interpolation": "LINEAR",
          "output": 31
        },
        {
          "input": 32,
          "interpolation": "LINEAR",
          "output": 33
        },
        {
          "input": 34,
          "interpolation": "LINEAR",
          "output": 35
        },
        {
          "input": 36,
          "interpolation": "LINEAR",
          "output": 37
        },
        {
          "input": 38,
          "interpolation": "LINEAR",
          "output": 39
        },
        {
          "input": 40,
          "interpolation": "LINEAR",
          "output": 41
        },
        {
          "input": 42,
          "interpolation": "LINEAR",
          "output": 43
        },
        {
          "input": 44,
          "interpolation": "LINEAR",
          "output": 45
        },
        {
          "input": 46,
          "interpolation": "LINEAR",
          "output": 47
        },
        {
          "input": 48,
          "interpolation": "LINEAR",
          "output": 49
        },
        {
          "input": 50,
          "interpolation": "LINEAR",
          "output": 51
        },
        {
          "input": 52,
          "interpolation": "LINEAR",
          "output": 53
        }
      ]
    }
  ],
  "asset": {
    "extras": {
      "author": "HWHNL (https://sketchfab.com/HWHNL)",
      "license": "CC-BY-NC-4.0 (http://creativecommons.org/licenses/by-nc/4.0/)",
      "source": "https://sketchfab.com/3d-models/uss-los-angeles-free-bonus-46aaf06f4ff2478d806edd56bb86ba15",
      "title": "USS Los Angeles (Free Bonus)"
    },
    "generator": "Sketchfab-17.17.0",
    "version": "2.0"
  },
  "bufferViews": [
    {
      "buffer": 0,
      "byteLength": 205528,
      "byteStride": 8,
      "name": "shortBufferViews",
      "target": 34962
    },
    {
      "buffer": 0,
      "byteLength": 320784,
      "byteOffset": 205528,
      "name": "floatBufferViews",
      "target": 34963
    },
    {
      "buffer": 0,
      "byteLength": 205528,
      "byteOffset": 526312,
      "byteStride": 8,
      "name": "floatBufferViews",
      "target": 34962
    },
    {
      "buffer": 0,
      "byteLength": 616584,
      "byteOffset": 731840,
      "byteStride": 12,
      "name": "floatBufferViews",
      "target": 34962
    },
    {
      "buffer": 0,
      "byteLength": 822112,
      "byteOffset": 1348424,
      "byteStride": 16,
      "name": "floatBufferViews",
      "target": 34962
    },
    {
      "buffer": 0,
      "byteLength": 2176,
      "byteOffset": 2170536,
      "name": "floatBufferViews"
    },
    {
      "buffer": 0,
      "byteLength": 4892,
      "byteOffset": 2172712,
      "name": "floatBufferViews"
    },
    {
      "buffer": 0,
      "byteLength": 36,
      "byteOffset": 2177604,
      "byteStride": 12,
      "name": "floatBufferViews"
    },
    {
      "buffer": 0,
      "byteLength": 19520,
      "byteOffset": 2177640,
      "byteStride": 16,
      "name": "floatBufferViews"
    }
  ],
  "buffers": [
    {
      "byteLength": 2197160,
      "uri": "scene.bin"
    }
  ],
  "extensionsUsed": [
    "KHR_materials_specular"
  ],
  "images": [
    {
      "uri": "textures/M_LAC_Body_baseColor.png"
    },
    {
      "uri": "textures/M_LAC_Body_metallicRoughness.png"
    },
    {
      "uri": "textures/M_LAC_Body_normal.png"
    }
  ],
  "materials": [
    {
      "doubleSided": true,
      "extensions": {
        "KHR_materials_specular": {
          "specularColorFactor": [
            1.0,
            1.0,
            1.0
          ],
          "specularFactor": 1.0
        }
      },
      "name": "M_LAC_Body",
      "normalTexture": {
        "index": 2
      },
      "pbrMetallicRoughness": {
        "baseColorTexture": {
          "index": 0
        },
        "metallicRoughnessTexture": {
          "index": 1
        },
        "roughnessFactor": 0.7
      }
    }
  ],
  "meshes": [
    {
      "name": "Object_0",
      "primitives": [
        {
          "attributes": {
            "JOINTS_0": 6,
            "NORMAL": 1,
            "POSITION": 0,
            "TANGENT": 2,
            "TEXCOORD_0": 3,
            "TEXCOORD_1": 3,
            "TEXCOORD_2": 3,
            "TEXCOORD_3": 3,
            "WEIGHTS_0": 7
          },
          "indices": 4,
          "material": 0,
          "mode": 4
        }
      ]
    }
  ],
  "nodes": [
    {
      "children": [
        1
      ],
      "matrix": [
        1.0,
        0.0,
        0.0,
        0.0,
        0.0,
        2.220446049250313e-16,
        -1.0,
        0.0,
        0.0,
        1.0,
        2.220446049250313e-16,
        0.0,
        0.0,
        0.0,
        0.0,
        1.0
      ],
      "name": "Sketchfab_model"
    },
    {
      "children": [
        2
      ],
      "name": "root"
    },
    {
      "children": [
        3
      ],
      "matrix": [
        1.0,
        0.0,
        0.0,
        0.0,
        0.0,
        2.220446049250313e-16,
        1.0,
        0.0,
        0.0,
        -1.0,
        2.220446049250313e-16,
        0.0,
        0.0,
        0.0,
        0.0,
        1.0
      ],
      "name": "GLTF_SceneRootNode"
    },
    {
      "children": [
        4
      ],
      "matrix": [
        0.009999999776482582,
        0.0,
        0.0,
        0.0,
        0.0,
        0.009999999776482582,
        0.0,
        0.0,
        0.0,
        0.0,
        0.009999999776482582,
        0.0,
        0.0,
        0.0,
        0.0,
        1.0
      ],
      "name": "Los_Angeles_Class_Submarine_35"
    },
    {
      "children": [
        5
      ],
      "name": "root_34"
    },
    {
      "children": [
        6,
        8,
        7
      ],
      "name": "GLTF_created_0"
    },
    {
      "children": [
        9,
        41
      ],
      "name": "GLTF_created_0_rootJoint"
    },
    {
      "name": "USS_Los_Angeles_33"
    },
    {
      "mesh": 0,
      "name": "Object_8",
      "skin": 0
    },
    {
      "children": [
        10
      ],
      "name": "Skeleton_31",
      "rotation": [
        -0.7071068286895752,
        0.0,
        0.0,
        0.7071068286895752
      ]
    },
    {
      "children": [
        11
      ],
      "name": "root_30"
    },
    {
      "children": [
        12,
        13,
        14,
        15,
        16,
        17,
        18,
        19,
        20,
        22,
        24,
        26,
        28,
        29,
        30,
        31,
        32,
        33,
        34,
        35,
        36,
        37,
        38,
        39,
        40
      ],
      "name": "Core_29",
      "translation": [
        -9.094947017729282e-13,
        -1.862645149230957e-09,
        7.669491153272645e-10
      ]
    },
    {
      "name": "lower_steering_wheel_horizontal_0",
      "translation": [
        -4798.67578125,
        0.0,
        -193.4632110595703
      ]
    },
    {
      "name": "upper_steering_wheel_horizontal_1",
      "translation": [
        -4798.67578125,
        0.0,
        193.4632110595703
      ]
    },
    {
      "name": "rt_steering_wheel_vertical_back_2",
      "translation": [
        -4950.87548828125,
        -355.701171875,
        -36.796966552734375
      ]
    },
    {
      "name": "lf_steering_wheel_vertical_back_3",
      "translation": [
        -4950.87548828125,
        355.7013854980469,
        -36.796966552734375
      ]
    },
    {
      "name": "lf_steering_wheel_vertical_front_4",
      "translation": [
        2357.66943359375,
        76.013916015625,
        768.8485107421875
      ]
    },
    {
      "name": "rt_steering_wheel_vertical_front_5",
      "translation": [
        2357.66943359375,
        -76.013916015625,
        768.8485107421875
      ]
    },
    {
      "name": "screw_6",
      "translation": [
        -5300.4306640625,
        0.0,
        1.1768919172538972e-12
      ]
    },
    {
      "name": "radar_7",
      "translation": [
        2303.86474609375,
        0.000244140625,
        1062.9254150390625
      ]
    },
    {
      "children": [
        21
      ],
      "name": "pipe_2_2_9",
      "translation": [
        2182.23681640625,
        -33.702880859375,
        1328.2603759765625
      ]
    },
    {
      "name": "pipe_2_1_jnt_8",
      "translation": [
        -0.03662109375,
        0.003124237060546875,
        187.6397705078125
      ]
    },
    {
      "children": [
        23
      ],
      "name": "pipe_1_2_11",
      "translation": [
        2182.200439453125,
        33.700927734375,
        1328.2603759765625
      ]
    },
    {
      "name": "pipe_1_1_jnt_10",
      "translation": [
        -0.00048828125,
        -0.000701904296875,
        187.6397705078125
      ]
    },
    {
      "children": [
        25
      ],
      "name": "pipe_3_2_13",
      "translation": [
        2092.23681640625,
        41.701171875,
        1328.2603759765625
      ]
    },
    {
      "name": "pipe_3_1_jnt_12",
      "translation": [
        -0.03662109375,
        -0.000865936279296875,
        187.6397705078125
      ]
    },
    {
      "children": [
        27
      ],
      "name": "pipe_4_2_15",
      "translation": [
        2092.23681640625,
        -41.69970703125,
        1328.2603759765625
      ]
    },
    {
      "name": "pipe_4_1_jnt_14",
      "translation": [
        -0.03662109375,
        0.0,
        187.6397705078125
      ]
    },
    {
      "name": "pipe_5_16",
      "translation": [
        1906.387939453125,
        0.000244140625,
        1327.6650390625
      ]
    },
    {
      "name": "shaft_cover_R1_17",
      "rotation": [
        0.0,
        0.07845909893512726,
        0.0,
        0.9969174265861511
      ],
      "translation": [
        4465.39453125,
        -34.0,
        476.5935363769531
      ]
    },
    {
      "name": "shaft_cover_R5_18",
      "translation": [
        4256.11474609375,
        -248.30029296875,
        417.81304931640625
      ]
    },
    {
      "name": "shaft_cover_L5_19",
      "translation": [
        4256.11474609375,
        248.29978942871094,
        417.81304931640625
      ]
    },
    {
      "name": "shaft_cover_L3_20",
      "translation": [
        4256.169921875,
        35.69970703125,
        495.0250549316406
      ]
    },
    {
      "name": "shaft_cover_R4_21",
      "translation": [
        4151.4697265625,
        -36.30029296875,
        498.57000732421875
      ]
    },
    {
      "name": "shaft_cover_R3_22",
      "translation": [
        4256.169921875,
        -35.700191497802734,
        495.0250549316406
      ]
    },
    {
      "name": "shaft_cover_R2_23",
      "rotation": [
        0.0,
        0.048240918666124344,
        0.0,
        0.9988357424736023
      ],
      "scale": [
        0.9999999403953552,
        1.0,
        0.9999999403953552
      ],
      "translation": [
        4360.7548828125,
        -35.700191497802734,
        485.07183837890625
      ]
    },
    {
      "name": "shaft_cover_R6_24",
      "translation": [
        4151.4697265625,
        -250.0,
        422.9256591796875
      ]
    },
    {
      "name": "shaft_cover_L2_25",
      "rotation": [
        0.0,
        0.04824093356728554,
        0.0,
        0.9988357424736023
      ],
      "scale": [
        0.9999999403953552,
        1.0,
        0.9999999403953552
      ],
      "translation": [
        4360.7548828125,
        35.69970703125,
        485.07183837890625
      ]
    },
    {
      "name": "shaft_cover_L4_26",
      "translation": [
        4151.4697265625,
        36.2998046875,
        498.57000732421875
      ]
    },
    {
      "name": "shaft_cover_L1_27",
      "rotation": [
        0.0,
        0.07845909893512726,
        0.0,
        0.9969174265861511
      ],
      "translation": [
        4465.39453125,
        34.0,
        476.5935363769531
      ]
    },
    {
      "name": "shaft_cover_L6_28",
      "translation": [
        4151.4697265625,
        249.999755859375,
        422.9256591796875
      ]
    },
    {
      "name": "neutral_bone_32",
      "rotation": [
        -0.7071068286895752,
        0.0,
        0.0,
        0.7071068286895752
      ]
    }
  ],
  "samplers": [
    {
      "magFilter": 9729,
      "minFilter": 9987,
      "wrapS": 10497,
      "wrapT": 10497
    }
  ],
  "scene": 0,
  "scenes": [
    {
      "name": "Sketchfab_Scene",
      "nodes": [
        0
      ]
    }
  ],
  "skins": [
    {
      "inverseBindMatrices": 5,
      "joints": [
        6,
        9,
        10,
        11,
        12,
        13,
        14,
        15,
        16,
        17,
        18,
        19,
        20,
        21,
        22,
        23,
        24,
        25,
        26,
        27,
        28,
        29,
        30,
        31,
        32,
        33,
        34,
        35,
        36,
        37,
        38,
        39,
        40,
        41
      ],
      "skeleton": 6
    }
  ],
  "textures": [
    {
      "sampler": 0,
      "source": 0
    },
    {
      "sampler": 0,
      "source": 1
    },
    {
      "sampler": 0,
      "source": 2
    }
  ]
}
